<?xml version="1.0" encoding="utf-8"?>
<!-- Generator: Adobe Illustrator 17.0.0, SVG Export Plug-In . SVG Version: 6.00 Build 0)  -->
<!DOCTYPE svg PUBLIC "-//W3C//DTD SVG 1.1//EN" "http://www.w3.org/Graphics/SVG/1.1/DTD/svg11.dtd">
<svg version="1.1" id="Layer_1" xmlns="http://www.w3.org/2000/svg" xmlns:xlink="http://www.w3.org/1999/xlink" x="0px" y="0px"
	 width="20.182px" height="21.12px" viewBox="0 0 20.182 21.12" style="enable-background:new 0 0 20.182 21.12;"
	 xml:space="preserve">
<style type="text/css">
	.st0{fill:#FFFFFF;}
</style>
<g id="XMLID_21_">
	<path id="XMLID_25_" class="st0" d="M6.805,17.601c-0.885,0-1.771,0.007-2.656-0.006c-0.192-0.003-0.262,0.066-0.319,0.235
		c-0.295,0.873-0.601,1.743-0.906,2.613c-0.165,0.471-0.448,0.671-0.943,0.674c-0.328,0.002-0.656,0-0.985,0.001
		c-0.787,0.002-1.191-0.591-0.904-1.33c0.87-2.245,1.741-4.49,2.612-6.734c0.763-1.968,1.526-3.935,2.29-5.903
		c0.198-0.51,0.459-0.687,1.008-0.688c0.557-0.001,1.114-0.002,1.672,0c0.474,0.002,0.76,0.193,0.934,0.629
		c1.691,4.239,3.382,8.478,5.07,12.719c0.281,0.706-0.129,1.304-0.89,1.307c-0.366,0.002-0.733,0.002-1.099-0.001
		c-0.47-0.004-0.754-0.199-0.92-0.644c-0.332-0.892-0.663-1.786-0.984-2.682c-0.053-0.148-0.122-0.196-0.278-0.194
		C8.606,17.605,7.705,17.601,6.805,17.601z M4.819,15.243c1.335,0,2.628,0,3.949,0c-0.662-1.79-1.318-3.563-1.995-5.39
		C6.112,11.677,5.47,13.448,4.819,15.243z"/>
	<path id="XMLID_22_" class="st0" d="M17.496,9.691c-0.484,0.31-0.924,0.663-1.421,0.898c-1.175,0.554-2.403,0.597-3.592,0.071
		c-1.181-0.523-1.764-1.49-1.752-2.785c0.012-1.267,0.593-2.184,1.762-2.7c0.823-0.363,1.708-0.497,2.579-0.688
		c0.669-0.146,1.329-0.336,1.993-0.503c0.139-0.035,0.186-0.11,0.188-0.258c0.01-1.048-0.309-1.439-1.343-1.549
		c-0.36-0.038-0.732-0.014-1.094,0.027c-0.431,0.049-0.761,0.287-0.999,0.656c-0.286,0.444-0.571,0.558-1.089,0.459
		c-0.202-0.039-0.405-0.072-0.608-0.11c-0.66-0.125-0.964-0.782-0.629-1.367c0.476-0.832,1.185-1.372,2.112-1.594
		c1.411-0.338,2.834-0.336,4.234,0.044c0.421,0.114,0.821,0.363,1.187,0.614c0.588,0.404,0.837,1.031,0.87,1.717
		c0.051,1.066,0.05,2.134,0.073,3.201c0.022,1.067,0.041,2.135,0.074,3.202c0.006,0.203,0.067,0.405,0.112,0.606
		c0.138,0.607-0.266,1.128-0.886,1.134c-0.252,0.003-0.504,0.003-0.756,0.001c-0.453-0.005-0.767-0.241-0.898-0.672
		C17.571,9.949,17.529,9.804,17.496,9.691z M17.273,5.743c-0.853,0.202-1.663,0.382-2.466,0.59
		c-0.277,0.072-0.544,0.197-0.799,0.328c-0.246,0.127-0.402,0.348-0.468,0.621c-0.132,0.547,0.084,1.124,0.542,1.456
		c0.47,0.34,0.992,0.361,1.531,0.237c0.806-0.185,1.493-0.849,1.575-1.57C17.251,6.862,17.247,6.312,17.273,5.743z"/>
</g>
</svg>
