<?xml version="1.0" encoding="utf-8"?>
<!-- Generator: Adobe Illustrator 17.0.0, SVG Export Plug-In . SVG Version: 6.00 Build 0)  -->
<!DOCTYPE svg PUBLIC "-//W3C//DTD SVG 1.1//EN" "http://www.w3.org/Graphics/SVG/1.1/DTD/svg11.dtd">
<svg version="1.1" id="Layer_1" xmlns="http://www.w3.org/2000/svg" xmlns:xlink="http://www.w3.org/1999/xlink" x="0px" y="0px"
	 width="41px" height="41px" viewBox="0 0 41 41" style="enable-background:new 0 0 41 41;" xml:space="preserve">
<style type="text/css">
	.st0{fill:#FFFFFF;}
</style>
<g id="XMLID_2_">
	<path id="XMLID_18_" class="st0" d="M20.512,0C31.813,0.005,41.007,9.209,41,20.512C40.993,31.812,31.789,41.006,20.487,41
		C9.17,40.994-0.021,31.774,0,20.447C0.021,9.167,9.222-0.005,20.512,0z M6.393,33.497c0.108-0.268,0.195-0.504,0.296-0.733
		c1.222-2.761,3.308-4.672,5.959-6.012c2.068-1.045,4.292-1.514,6.588-1.646c3.191-0.183,6.292,0.228,9.176,1.686
		c2.847,1.439,5.016,3.543,6.145,6.598c0.011,0.03,0.05,0.05,0.076,0.074c6.561-6.941,7.131-18.67-0.47-26.474
		C26.793-0.578,14.31-0.606,6.869,6.962C-0.744,14.707-0.239,26.466,6.393,33.497z"/>
	<path id="XMLID_10_" class="st0" d="M20.496,7.367c4.019,0,7.284,3.259,7.289,7.275c0.005,4.034-3.271,7.307-7.306,7.299
		c-4.017-0.008-7.268-3.272-7.267-7.296C13.214,10.63,16.478,7.368,20.496,7.367z"/>
</g>
</svg>
