<?xml version="1.0" encoding="utf-8"?>
<!-- Generator: Adobe Illustrator 17.0.0, SVG Export Plug-In . SVG Version: 6.00 Build 0)  -->
<!DOCTYPE svg PUBLIC "-//W3C//DTD SVG 1.1//EN" "http://www.w3.org/Graphics/SVG/1.1/DTD/svg11.dtd">
<svg version="1.1" id="Layer_1" xmlns="http://www.w3.org/2000/svg" xmlns:xlink="http://www.w3.org/1999/xlink" x="0px" y="0px"
	 width="41px" height="41px" viewBox="0 0 41 41" style="enable-background:new 0 0 41 41;" xml:space="preserve">
<style type="text/css">
	.st0{fill:#FFFFFF;}
</style>
<g id="XMLID_128_">
	<g id="XMLID_72_">
		<path id="XMLID_74_" class="st0" d="M6.862,11.358c-0.024-0.637,0.332-1.064,0.906-1.137c1.483-0.187,2.968-0.363,4.452-0.546
			c1.819-0.224,3.638-0.45,5.458-0.674c1.802-0.222,3.604-0.441,5.405-0.662c0.23-0.028,0.459-0.056,0.688-0.088
			c0.666-0.095,1.147,0.244,1.233,0.907c0.218,1.694,0.421,3.391,0.629,5.087c0.222,1.811,0.443,3.621,0.666,5.432
			c0.203,1.652,0.412,3.302,0.608,4.955c0.071,0.6-0.311,1.064-0.907,1.137c-2.906,0.358-5.812,0.714-8.717,1.072
			c-2.393,0.295-4.786,0.592-7.179,0.891c-0.855,0.107-1.264-0.221-1.369-1.078c-0.309-2.544-0.628-5.087-0.94-7.631
			c-0.294-2.402-0.584-4.805-0.876-7.208C6.897,11.637,6.875,11.461,6.862,11.358z M23.227,9.622
			c-0.035,0.003-0.088,0.007-0.141,0.014c-2.243,0.278-4.486,0.559-6.729,0.835c-2.526,0.311-5.053,0.616-7.579,0.925
			c-0.39,0.048-0.555,0.241-0.516,0.629c0.053,0.531,0.124,1.061,0.189,1.591c0.222,1.82,0.445,3.639,0.668,5.459
			c0.166,1.36,0.329,2.721,0.5,4.081c0.056,0.447,0.249,0.59,0.684,0.536c2.182-0.268,4.363-0.537,6.544-0.806
			c2.605-0.32,5.211-0.64,7.816-0.961c0.414-0.051,0.569-0.267,0.518-0.673c-0.208-1.66-0.411-3.32-0.615-4.981
			c-0.252-2.058-0.501-4.116-0.754-6.174C23.773,9.777,23.567,9.61,23.227,9.622z"/>
		<path id="XMLID_73_" class="st0" d="M27.104,14.551c1.432,0.15,2.811,0.294,4.191,0.439c0.602,0.063,1.203,0.134,1.806,0.189
			c0.725,0.066,1.101,0.48,1.03,1.207c-0.158,1.63-0.335,3.258-0.506,4.887c-0.169,1.611-0.34,3.222-0.508,4.833
			c-0.2,1.912-0.394,3.825-0.6,5.736c-0.064,0.599-0.533,0.978-1.133,0.916c-1.762-0.18-3.523-0.373-5.284-0.559
			c-1.77-0.187-3.541-0.37-5.311-0.555c-1.868-0.196-3.736-0.39-5.603-0.594c-0.508-0.055-0.886-0.517-0.856-1.027
			c0.02-0.346,0.072-0.69,0.1-1.036c0.013-0.161,0.076-0.217,0.243-0.237c2.527-0.305,5.051-0.629,7.579-0.92
			c0.381-0.044,0.779,0.047,1.167,0.088c2.452,0.258,4.903,0.52,7.354,0.78c0.08,0.008,0.16,0.014,0.24,0.016
			c0.333,0.011,0.524-0.135,0.562-0.47c0.11-0.964,0.209-1.929,0.311-2.894c0.171-1.62,0.342-3.239,0.511-4.859
			c0.122-1.168,0.245-2.337,0.362-3.506c0.034-0.339-0.129-0.546-0.473-0.584c-1.469-0.161-2.937-0.319-4.407-0.468
			c-0.636-0.064-0.636-0.053-0.698-0.691C27.16,15.024,27.132,14.806,27.104,14.551z"/>
	</g>
	<g id="XMLID_68_">
		<path id="XMLID_69_" class="st0" d="M20.5,41c-5.476,0-10.624-2.132-14.496-6.004S0,25.976,0,20.5S2.132,9.876,6.004,6.004
			S15.024,0,20.5,0s10.624,2.132,14.496,6.004S41,15.024,41,20.5s-2.132,10.624-6.004,14.496S25.976,41,20.5,41z M20.5,1.136
			C9.823,1.136,1.136,9.823,1.136,20.5S9.823,39.864,20.5,39.864S39.864,31.177,39.864,20.5S31.177,1.136,20.5,1.136z"/>
	</g>
</g>
</svg>
